<svg xmlns:xlink="http://www.w3.org/1999/xlink" xmlns="http://www.w3.org/2000/svg" width="12" height="12" viewBox="0 0 12 12">
  <path id="icon_chatbubble" d="M5.725,15.3c.287,0,.483-.152.827-.475l1.873-1.766h3.418a2.342,2.342,0,0,0,2.51-2.662V5.959A2.345,2.345,0,0,0,11.843,3.3H4.864a2.342,2.342,0,0,0-2.51,2.662v4.435a2.342,2.342,0,0,0,2.5,2.662H5.1v1.474C5.1,15,5.329,15.3,5.725,15.3Zm.241-1.133V12.507c0-.329-.121-.451-.425-.451H4.881c-1.08,0-1.58-.579-1.58-1.675V5.971c0-1.1.5-1.675,1.58-1.675h6.945c1.068,0,1.58.579,1.58,1.675v4.41c0,1.1-.511,1.675-1.58,1.675H8.379a.767.767,0,0,0-.684.286ZM5.582,6.738h5.538a.342.342,0,0,0,0-.682H5.582a.325.325,0,0,0-.316.335A.332.332,0,0,0,5.582,6.738Zm0,1.858h5.538a.342.342,0,0,0,0-.682H5.582a.325.325,0,0,0-.316.335A.332.332,0,0,0,5.582,8.6Zm0,1.864H9.2a.345.345,0,0,0,0-.688H5.582a.345.345,0,0,0,0,.688Z" transform="translate(-2.354 -3.297)" fill="#999"/>
</svg>