<svg xmlns:xlink="http://www.w3.org/1999/xlink" xmlns="http://www.w3.org/2000/svg" width="20" height="20" viewBox="0 0 20 20"><defs><style>.a{fill:none;}.b{fill:#999;}</style></defs><rect class="a" width="20" height="20"/><path class="b" d="M9,5.833A7.19,7.19,0,0,1,15.415,9.5,7.182,7.182,0,0,1,9,13.167,7.182,7.182,0,0,1,2.585,9.5,7.19,7.19,0,0,1,9,5.833M9,4.5a8.62,8.62,0,0,0-8,5,8.62,8.62,0,0,0,8,5,8.62,8.62,0,0,0,8-5A8.62,8.62,0,0,0,9,4.5ZM9,7.833A1.748,1.748,0,0,1,10.818,9.5,1.748,1.748,0,0,1,9,11.167,1.748,1.748,0,0,1,7.182,9.5,1.748,1.748,0,0,1,9,7.833M9,6.5a3.15,3.15,0,0,0-3.273,3A3.15,3.15,0,0,0,9,12.5a3.15,3.15,0,0,0,3.273-3A3.15,3.15,0,0,0,9,6.5Z" transform="translate(1 0.5)"/></svg>